<svg width="51" height="51" viewBox="0 0 51 51" fill="none" xmlns="http://www.w3.org/2000/svg">
<path opacity="0.3" d="M43.5063 16.4195H40.5063V5.91947C40.5063 4.26947 39.2867 2.12305 36.3242 3.36955C36.3242 3.36955 13.5062 11.9195 4.10568 14.9195C3.39862 15.0553 2.75784 15.4251 2.28634 15.9692C1.81485 16.5134 1.54017 17.2003 1.50631 17.9195V47.9195C1.45712 48.6611 1.70257 49.3922 2.1893 49.954C2.67603 50.5157 3.36459 50.8626 4.10568 50.9195L4.18698 50.888C4.29348 50.8985 4.39681 50.9195 4.50631 50.9195H43.5063C44.302 50.9195 45.0652 50.6034 45.6278 50.0407C46.1904 49.4781 46.5063 48.7151 46.5063 47.9195V19.4195C46.5063 18.6238 46.1904 17.8608 45.6278 17.2982C45.0652 16.7356 44.302 16.4195 43.5063 16.4195Z" fill="black"/>
<path d="M37.9083 34.4194L4.10885 47.9194C3.36777 47.8626 2.67884 47.5156 2.19211 46.9539C1.70537 46.3922 1.45992 45.6611 1.50912 44.9194V14.9194C1.54298 14.2002 1.81765 13.5133 2.28915 12.9692C2.76065 12.425 3.40179 12.0553 4.10885 11.9194C13.5094 8.91943 36.3274 0.369506 36.3274 0.369506C39.2899 -0.869494 40.5091 1.26943 40.5091 2.91943V31.4194C40.5583 32.1613 40.3128 32.8927 39.8258 33.4545C39.3387 34.0162 38.6496 34.363 37.9083 34.4194V34.4194Z" fill="#343462"/>
<path d="M37.9083 34.4194L4.10885 47.9194C3.36777 47.8626 2.67884 47.5156 2.19211 46.9539C1.70537 46.3922 1.45992 45.6611 1.50912 44.9194V14.9194C1.54298 14.2002 1.81765 13.5133 2.28915 12.9692C2.76065 12.425 3.40179 12.0553 4.10885 11.9194C13.5094 8.91943 36.3274 0.369506 36.3274 0.369506C39.2899 -0.869494 40.5091 1.26943 40.5091 2.91943V31.4194C40.5583 32.1613 40.3128 32.8927 39.8258 33.4545C39.3387 34.0162 38.6496 34.363 37.9083 34.4194V34.4194Z" fill="#4757A2"/>
<path opacity="0.3" d="M40.5062 10.4194H8.60266C6.91816 10.9984 5.38516 11.5114 4.10266 11.9194C3.3956 12.0553 2.75482 12.425 2.28333 12.9692C1.81183 13.5133 1.53715 14.2002 1.5033 14.9194V16.4194H40.5033L40.5062 10.4194Z" fill="#1F1E2D"/>
<path d="M43.5092 13.4194H4.50916C2.8523 13.4194 1.50916 14.7626 1.50916 16.4194V44.9194C1.50916 46.5763 2.8523 47.9194 4.50916 47.9194H43.5092C45.166 47.9194 46.5092 46.5763 46.5092 44.9194V16.4194C46.5092 14.7626 45.166 13.4194 43.5092 13.4194Z" fill="#7586D4"/>
<path opacity="0.3" d="M43.5062 47.9194H4.50623C3.71058 47.9194 2.94737 47.6033 2.38477 47.0407C1.82216 46.4781 1.50623 45.7151 1.50623 44.9194V41.9194C1.50623 42.7151 1.82216 43.4781 2.38477 44.0407C2.94737 44.6033 3.71058 44.9194 4.50623 44.9194H43.5062C44.3019 44.9194 45.0651 44.6033 45.6277 44.0407C46.1903 43.4781 46.5062 42.7151 46.5062 41.9194V44.9194C46.5062 45.7151 46.1903 46.4781 45.6277 47.0407C45.0651 47.6033 44.3019 47.9194 43.5062 47.9194Z" fill="#1F1E2D"/>
<path opacity="0.2" d="M43.5062 13.4194H4.50623C3.71058 13.4194 2.94737 13.7355 2.38477 14.2982C1.82216 14.8608 1.50623 15.6238 1.50623 16.4194V19.4194C1.50623 18.6238 1.82216 17.8608 2.38477 17.2982C2.94737 16.7355 3.71058 16.4194 4.50623 16.4194H43.5062C44.3019 16.4194 45.0651 16.7355 45.6277 17.2982C46.1903 17.8608 46.5062 18.6238 46.5062 19.4194V16.4194C46.5062 15.6238 46.1903 14.8608 45.6277 14.2982C45.0651 13.7355 44.3019 13.4194 43.5062 13.4194Z" fill="white"/>
<path opacity="0.3" d="M38.2592 23.9194H46.5092V37.4194H38.2592C36.8668 37.4194 35.5314 36.8663 34.5468 35.8817C33.5623 34.8972 33.0092 33.5618 33.0092 32.1694V29.1694C33.0092 27.777 33.5623 26.4417 34.5468 25.4571C35.5314 24.4726 36.8668 23.9194 38.2592 23.9194V23.9194Z" fill="#1F1E2D"/>
<path d="M38.2592 23.9194H46.5092C47.3048 23.9194 48.0679 24.2355 48.6305 24.7981C49.1931 25.3607 49.5092 26.1238 49.5092 26.9194V31.4194C49.5092 32.2151 49.1931 32.9781 48.6305 33.5408C48.0679 34.1034 47.3048 34.4194 46.5092 34.4194H38.2592C36.8668 34.4194 35.5314 33.8663 34.5468 32.8817C33.5623 31.8972 33.0092 30.5618 33.0092 29.1694V29.1694C33.0092 27.777 33.5623 26.4417 34.5468 25.4571C35.5314 24.4726 36.8668 23.9194 38.2592 23.9194V23.9194Z" fill="#A0C1E2"/>
<path opacity="0.2" d="M46.5064 23.9193H38.2564C37.4358 23.9084 36.6243 24.0924 35.8888 24.4564C35.1533 24.8204 34.5148 25.354 34.0259 26.0132C33.537 26.6723 33.2113 27.4383 33.0763 28.2478C32.9413 29.0573 33.0009 29.8872 33.2495 30.6693C33.5692 29.5886 34.229 28.6398 35.1311 27.9641C36.0332 27.2885 37.1293 26.9221 38.2564 26.9193H46.5064C47.302 26.9193 48.0652 27.2355 48.6278 27.7981C49.1904 28.3607 49.5064 29.1237 49.5064 29.9193V26.9193C49.5064 26.1237 49.1904 25.3607 48.6278 24.7981C48.0652 24.2355 47.302 23.9193 46.5064 23.9193Z" fill="white"/>
<path d="M39.0092 32.9194C40.666 32.9194 42.0092 31.5763 42.0092 29.9194C42.0092 28.2626 40.666 26.9194 39.0092 26.9194C37.3523 26.9194 36.0092 28.2626 36.0092 29.9194C36.0092 31.5763 37.3523 32.9194 39.0092 32.9194Z" fill="#4757A1"/>
<path opacity="0.3" d="M39.0062 31.4194C38.3431 31.4169 37.6994 31.1948 37.1759 30.7877C36.6524 30.3806 36.2786 29.8115 36.1128 29.1694C36.0452 29.4138 36.0094 29.6659 36.0062 29.9194C36.0062 30.7151 36.3222 31.4781 36.8848 32.0407C37.4474 32.6033 38.2106 32.9194 39.0062 32.9194C39.8019 32.9194 40.5651 32.6033 41.1277 32.0407C41.6903 31.4781 42.0062 30.7151 42.0062 29.9194C42.0031 29.6659 41.9672 29.4138 41.8997 29.1694C41.7339 29.8115 41.3601 30.3806 40.8365 30.7877C40.313 31.1948 39.6694 31.4169 39.0062 31.4194Z" fill="#1F1E2D"/>
</svg>
