<svg width="24" height="24" viewBox="0 0 24 24" fill="none" xmlns="http://www.w3.org/2000/svg">
<path d="M23.6109 21.8484L18 16.2609C19.3698 14.5969 20.1888 12.4734 20.1888 10.1531C20.1888 4.83281 15.8535 0.515625 10.511 0.515625C5.16368 0.515625 0.82843 4.83281 0.82843 10.1578C0.82843 15.4828 5.16368 19.8 10.511 19.8C12.8363 19.8 14.9733 18.9844 16.6443 17.6203L22.2505 23.2031C22.6271 23.5781 23.2343 23.5781 23.6109 23.2031C23.9874 22.8281 23.9874 22.2234 23.6109 21.8484ZM2.74893 10.1578C2.74893 5.89219 6.22278 2.43281 10.5063 2.43281C14.7897 2.43281 18.2636 5.89219 18.2636 10.1578C18.2636 14.4234 14.7897 17.8828 10.5063 17.8828C6.22278 17.8828 2.74893 14.4234 2.74893 10.1578V10.1578Z" fill="white"/>
</svg>
