<svg width="31" height="31" viewBox="0 0 31 31" fill="none" xmlns="http://www.w3.org/2000/svg">
<path fill-rule="evenodd" clip-rule="evenodd" d="M11.6237 12.9683C11.6328 13.1378 11.6083 13.3074 11.5518 13.4674C11.4953 13.6274 11.4078 13.7748 11.2943 13.901C11.1809 14.0271 11.0436 14.1297 10.8905 14.2029C10.7373 14.276 10.5713 14.3182 10.4018 14.3272C9.43046 14.3788 8.65933 14.4421 8.05871 14.5054C7.25012 14.5907 6.75929 15.0867 6.67663 15.8009C6.56167 16.8265 6.45833 18.3778 6.45833 20.6667C6.45833 22.9555 6.56037 24.5068 6.67792 25.5324C6.75929 26.2479 7.24883 26.7427 8.05612 26.8279C9.46792 26.9764 11.8045 27.125 15.5 27.125C19.1942 27.125 21.5321 26.9764 22.9439 26.8279C23.7512 26.7427 24.2407 26.2467 24.3221 25.5324C24.4396 24.5068 24.5417 22.9555 24.5417 20.6667C24.5417 18.3778 24.4396 16.8265 24.3221 15.8009C24.2407 15.0867 23.7499 14.5907 22.9426 14.5054C22.1628 14.4259 21.3811 14.3665 20.5982 14.3272C20.2595 14.3045 19.9433 14.1494 19.718 13.8954C19.4927 13.6414 19.3765 13.3089 19.3945 12.9699C19.4125 12.6309 19.5633 12.3126 19.8142 12.0838C20.065 11.8551 20.3959 11.7344 20.7351 11.7477C21.7465 11.8007 22.5615 11.8678 23.2125 11.9363C25.1307 12.1391 26.66 13.4992 26.8886 15.5077C27.0204 16.6522 27.125 18.3042 27.125 20.6667C27.125 23.0278 27.0204 24.6812 26.8886 25.8256C26.66 27.8328 25.1345 29.1942 23.2151 29.397C21.6897 29.5572 19.26 29.7083 15.5 29.7083C11.7412 29.7083 9.31033 29.5572 7.78487 29.397C5.86675 29.1942 4.34 27.8341 4.11138 25.8256C3.97833 24.6812 3.875 23.0278 3.875 20.6667C3.875 18.3042 3.97963 16.6522 4.11138 15.5077C4.34 13.4992 5.86933 12.1391 7.78746 11.9363C8.61151 11.8522 9.43759 11.7893 10.2649 11.7477C10.6069 11.7294 10.9422 11.8477 11.1971 12.0766C11.4519 12.3055 11.6054 12.6263 11.6237 12.9683Z" fill="white"/>
<path fill-rule="evenodd" clip-rule="evenodd" d="M11.8916 8.01742C11.648 8.25271 11.3218 8.38291 10.9831 8.37996C10.6444 8.37702 10.3204 8.24118 10.081 8.00169C9.84147 7.7622 9.70563 7.43824 9.70269 7.09957C9.69974 6.7609 9.82994 6.43462 10.0652 6.19101L14.5861 1.67017C14.8283 1.42802 15.1568 1.29199 15.4993 1.29199C15.8418 1.29199 16.1702 1.42802 16.4125 1.67017L20.9333 6.19101C21.1686 6.43462 21.2988 6.7609 21.2958 7.09957C21.2929 7.43824 21.1571 7.7622 20.9176 8.00169C20.6781 8.24118 20.3541 8.37702 20.0154 8.37996C19.6768 8.38291 19.3505 8.25271 19.1069 8.01742L16.7909 5.70147V18.0834C16.7909 18.426 16.6548 18.7545 16.4126 18.9967C16.1704 19.239 15.8418 19.375 15.4993 19.375C15.1567 19.375 14.8282 19.239 14.5859 18.9967C14.3437 18.7545 14.2076 18.426 14.2076 18.0834V5.70147L11.8916 8.01742Z" fill="white"/>
</svg>
