<svg width="367" height="57" viewBox="0 0 367 57" fill="none" xmlns="http://www.w3.org/2000/svg">
<path d="M1.16784 2.61731H12.4869C17.9646 2.61731 21.673 2.82333 23.6121 3.24749C25.5632 3.65954 27.1508 4.75024 28.3627 6.48324C29.5867 8.22837 30.2047 11.0036 30.2047 14.8089C30.2047 18.2871 29.7685 20.6381 28.908 21.8379C28.0355 23.0256 26.3388 23.7406 23.8181 23.9829C26.1207 24.5525 27.6598 25.316 28.4354 26.2855C29.2231 27.2308 29.7321 28.1155 29.9381 28.9153C30.132 29.7273 30.2169 34.89 30.2169 44.4154V45.8455C30.2169 48.9721 30.9561 51.9049 32.4467 54.6438L33.3193 56.2071H27.7325C25.4299 56.2071 23.4788 55.3952 21.8548 53.7833C20.2309 52.1715 19.431 50.2083 19.431 47.9057V41.3615C19.431 33.0358 19.2371 28.5881 18.8614 28.0307C18.4858 27.4611 17.492 27.1581 15.8923 27.1581V47.5179C15.8923 49.9174 15.0561 51.9534 13.3595 53.65C11.6628 55.3467 9.6026 56.2071 7.20305 56.2071H1.17995L1.85861 54.9468C3.47043 52.0019 4.27028 48.8509 4.27028 45.494V30.4908L0.56189 24.9161L4.27028 19.3414V13.1608C4.27028 9.86442 3.48255 6.7741 1.88285 3.87768L1.19207 2.61731H1.16784ZM15.8802 20.1897C17.2012 20.1897 18.1101 20.0201 18.6312 19.6686C19.1523 19.305 19.4189 18.1416 19.4189 16.1784V13.7061C19.4189 12.2882 19.1644 11.3672 18.6554 10.9309C18.1464 10.4825 17.2254 10.2522 15.8802 10.2522V20.1897V20.1897Z" fill="url(#paint0_linear_223_1495)"/>
<path d="M42.7609 2.3996C44.906 2.3996 46.2027 2.3996 46.6632 2.42383H47.1601C47.3903 2.42383 47.6206 2.42383 47.8387 2.44807C48.4689 2.48443 49.0628 2.52079 49.6445 2.58138C51.3411 2.75105 52.856 3.07826 54.2133 3.52665C54.8071 3.72056 55.4009 3.82963 56.019 3.82963C56.3099 3.82963 56.5886 3.80539 56.8916 3.76903C57.8005 3.59937 58.6125 3.22368 59.3154 2.64198C59.4487 2.54502 59.5456 2.47231 59.6183 2.42383H62.2239V13.5248H59.4123C57.6914 12.0826 55.716 11.3555 53.474 11.3555H48.6022V20.4447C50.3716 20.4447 52.0198 19.972 53.5225 19.0146L54.1769 18.6026H56.8067V30.8063H53.8618L53.1226 30.3094C51.7653 29.4005 50.2625 28.94 48.6144 28.94V38.1625H53.3407C55.6797 38.1625 57.7763 37.4354 59.6547 35.9932H63.0359V47.1184H60.0667L59.8486 46.9729C59.1215 46.4761 58.3337 46.2337 57.4612 46.2337H57.3157C56.3705 46.27 55.5464 46.5609 54.795 47.1305H33.9141C35.9622 43.3494 36.9923 39.3017 36.9923 34.9873V30.3094L33.2839 24.7832L36.9923 19.1722V14.4216C36.9923 10.1678 35.9622 6.1807 33.9141 2.46019C37.7195 2.44807 40.6765 2.43595 42.8094 2.43595L42.7609 2.3996Z" fill="url(#paint1_linear_223_1495)"/>
<path d="M78.3894 2.61731C82.0493 2.61731 84.8245 2.89605 86.7151 3.45352C88.5935 4.0231 90.1205 5.1744 91.2597 6.91952C92.4352 8.65253 93.0169 11.452 93.0169 15.3058C93.0169 17.9235 92.6049 19.7534 91.7808 20.7714C90.9567 21.8015 89.3449 22.5893 86.9453 23.1346C89.6236 23.7406 91.4414 24.7464 92.411 26.1644C93.3684 27.5701 93.841 29.7273 93.841 32.6237V36.7926C93.841 39.7981 93.4895 42.0401 92.7988 43.4944C92.108 44.9487 91.0052 45.9545 89.5024 46.4878C87.9997 47.021 84.8972 47.2876 80.2193 47.2876H63.6891C65.7372 43.5065 66.7673 39.4588 66.7673 35.1445V30.4666L63.059 24.9403L66.7673 19.3293V14.5787C66.7673 10.3249 65.7372 6.33782 63.6891 2.61731H78.3773H78.3894ZM78.4136 20.1776C78.9226 20.1655 79.3104 20.1534 79.5892 20.1534C80.7283 20.1534 81.4555 19.8746 81.7584 19.3172C82.0735 18.7718 82.2311 17.1721 82.2311 14.506C82.2311 13.1002 82.0978 12.1307 81.8433 11.5853C81.5888 11.0157 81.2494 10.6643 80.8374 10.531C80.4254 10.3734 79.6134 10.2886 78.4136 10.2765V20.214V20.1776ZM78.4136 39.6406C80.0618 39.58 81.1161 39.3255 81.5524 38.8529C82.0008 38.3923 82.2311 37.2653 82.2311 35.4717V31.2907C82.2311 29.388 82.0251 28.2246 81.6251 27.8246C81.2131 27.4126 80.1466 27.1945 78.4136 27.1339V39.6406Z" fill="url(#paint2_linear_223_1495)"/>
<path d="M103.403 2.39917C105.549 2.39917 106.845 2.39917 107.306 2.42341H107.803C108.033 2.42341 108.263 2.42341 108.481 2.44765C109.111 2.484 109.705 2.52036 110.287 2.58095C111.984 2.75062 113.499 3.07783 114.868 3.52623C115.462 3.72013 116.056 3.8292 116.674 3.8292C116.965 3.8292 117.243 3.80496 117.546 3.76861C118.455 3.59894 119.267 3.22326 119.97 2.64155C120.103 2.5446 120.2 2.47188 120.273 2.42341H122.879V13.5243H120.067C118.346 12.0822 116.371 11.355 114.129 11.355H109.257V20.4442C111.026 20.4442 112.674 19.9716 114.177 19.0142L114.832 18.6022H117.461V30.8059H114.517L113.777 30.309C112.42 29.4001 110.917 28.9396 109.269 28.9396V38.1621H113.995C116.334 38.1621 118.431 37.4349 120.309 35.9928H123.691V47.1179H120.721L120.503 46.9725C119.776 46.4756 118.988 46.2333 118.116 46.2333H117.97C117.025 46.2696 116.201 46.5605 115.45 47.1301H94.5688C96.6169 43.349 97.647 39.3012 97.647 34.9869V30.309L93.9386 24.7828L97.647 19.1717V14.4211C97.647 10.1674 96.6169 6.18027 94.5688 2.45976C98.3741 2.44765 101.331 2.43553 103.464 2.43553L103.403 2.39917Z" fill="url(#paint3_linear_223_1495)"/>
<path d="M142.16 2.61738C140.088 6.35 139.057 10.3371 139.057 14.5787V19.3294L142.79 24.9404L139.057 30.4666V38.6469H143.869L143.953 30.406C143.978 28.8912 144.535 27.5945 145.626 26.5038C146.704 25.4373 148.013 24.8919 149.528 24.8919H158.266C155.782 28.6124 154.533 32.6965 154.521 37.1684V37.2532C154.521 40.186 155.224 42.9491 156.618 45.5062L157.575 47.2756H146.971C145.989 46.8272 145.008 46.5969 144.026 46.5969C143.19 46.5969 142.342 46.7545 141.493 47.0695L141.021 47.2634H124.369C126.417 43.4823 127.448 39.4346 127.448 35.1203V30.4424L123.739 24.9162L127.448 19.3051V14.5545C127.448 10.3008 126.417 6.31365 124.369 2.59314H142.16V2.61738Z" fill="url(#paint4_linear_223_1495)"/>
<path d="M219.915 2.61731C223.078 2.61731 225.514 2.87181 227.222 3.35656C228.931 3.85344 230.204 4.56845 231.064 5.50161C231.912 6.44689 232.494 7.57394 232.797 8.90702C233.1 10.2522 233.258 12.3124 233.258 15.1119V19.0142C233.258 21.8621 232.955 23.9345 232.361 25.2433C231.791 26.5643 230.701 27.558 229.125 28.2609C227.55 28.9638 225.489 29.3153 222.944 29.3153H219.818V44.0519C219.818 48.3662 220.848 52.4139 222.92 56.195H205.117C207.19 52.4139 208.22 48.3662 208.22 44.0519V30.4787L204.487 24.904L208.22 19.3293V14.5787C208.22 10.3128 207.19 6.3257 205.117 2.61731H219.915V2.61731ZM219.83 21.644C220.169 21.6561 220.46 21.6682 220.702 21.6682C221.769 21.6682 222.508 21.4137 222.908 20.8805C223.32 20.3473 223.538 19.2566 223.538 17.6084V13.9243C223.538 12.4094 223.296 11.4156 222.823 10.9551C222.351 10.4946 221.345 10.2643 219.83 10.2643V21.644V21.644Z" fill="url(#paint5_linear_223_1495)"/>
<path d="M264.511 38.3075C264.293 40.1738 263.627 41.8705 262.524 43.4217C261.409 44.9729 259.906 46.1606 258.016 46.9968C256.125 47.8209 253.907 48.2329 251.387 48.2329C248.999 48.2329 246.854 47.8451 244.939 47.0574C243.025 46.2697 241.498 45.0941 240.334 43.5187C239.171 41.9553 238.492 40.2587 238.274 38.4287C238.08 36.8169 237.971 34.175 237.947 30.4666C237.947 30.103 236.711 28.261 234.214 24.9404C236.698 21.5956 237.947 19.7171 237.947 19.3293C237.959 15.7664 238.068 13.1971 238.25 11.5853C238.468 9.71902 239.134 8.02237 240.237 6.47115C241.352 4.91993 242.855 3.73228 244.745 2.90819C246.636 2.07199 248.842 1.64783 251.362 1.64783C253.883 1.64783 255.907 2.03563 257.822 2.82336C259.712 3.61109 261.251 4.79874 262.427 6.36208C263.59 7.92542 264.269 9.62207 264.487 11.452C264.681 13.0396 264.79 15.6694 264.814 19.3172C264.814 19.705 266.05 21.5713 268.547 24.9283C266.063 28.2488 264.814 30.0909 264.814 30.4545C264.79 34.0538 264.681 36.6594 264.511 38.2833V38.3075ZM253.192 14.1061C253.192 12.0216 253.083 10.7007 252.865 10.1189C252.635 9.54936 252.162 9.24638 251.435 9.24638C250.829 9.24638 250.369 9.48876 250.041 9.9614C249.702 10.4219 249.545 11.8035 249.545 14.1061V34.987C249.545 37.5804 249.654 39.168 249.872 39.7739C250.09 40.3799 250.575 40.6828 251.35 40.6828C252.126 40.6828 252.647 40.3314 252.865 39.6406C253.083 38.9377 253.192 37.2653 253.192 34.6355V14.0818V14.1061Z" fill="url(#paint6_linear_223_1495)"/>
<path d="M303.812 2.61731C300.516 6.34993 298.092 10.5673 296.529 15.2816L294.056 22.7832L297.547 34.5143C298.965 39.2528 301.267 43.5186 304.442 47.3119H295.183C293.475 47.3119 291.948 46.7786 290.578 45.7C289.233 44.6457 288.348 43.2884 287.936 41.6281L284.64 28.1397V41.6766C284.64 43.2278 284.095 44.5487 282.992 45.6395C281.889 46.7544 280.568 47.3119 279.005 47.3119H269.916C271.988 43.5308 273.018 39.483 273.018 35.1687V30.4908L269.285 24.9161L273.018 19.3414V14.5908C273.018 10.3371 271.988 6.34993 269.916 2.62943H279.041C280.592 2.62943 281.901 3.17478 282.992 4.25336C284.095 5.35618 284.64 6.67715 284.64 8.21625V19.9716L288.13 8.21625C288.639 6.55596 289.585 5.19864 290.966 4.15641C292.36 3.1263 293.911 2.61731 295.644 2.61731H303.8H303.812Z" fill="url(#paint7_linear_223_1495)"/>
<path d="M313.897 2.39917C316.042 2.39917 317.339 2.39917 317.8 2.42341H318.296C318.527 2.42341 318.757 2.42341 318.975 2.44765C319.605 2.484 320.199 2.52036 320.781 2.58095C322.477 2.75062 323.992 3.07783 325.362 3.52623C325.956 3.72013 326.549 3.8292 327.167 3.8292C327.458 3.8292 327.737 3.80496 328.04 3.76861C328.949 3.59894 329.761 3.22326 330.464 2.64155C330.597 2.5446 330.694 2.47188 330.767 2.42341H333.372V13.5243H330.561C328.84 12.0822 326.864 11.355 324.622 11.355H319.751V20.4442C321.52 20.4442 323.168 19.9716 324.671 19.0142L325.325 18.6022H327.955V30.8059H325.01L324.271 30.309C322.914 29.4001 321.411 28.9396 319.763 28.9396V38.1621H324.489C326.828 38.1621 328.925 37.4349 330.803 35.9928H334.184V47.1179H331.215L330.997 46.9725C330.27 46.4756 329.482 46.2333 328.61 46.2333H328.464C327.519 46.2696 326.695 46.5605 325.943 47.1301H305.063C307.111 43.349 308.141 39.3012 308.141 34.9869V30.309L304.432 24.7828L308.141 19.1717V14.4211C308.141 10.1674 307.111 6.18027 305.063 2.45976C308.868 2.44765 311.825 2.43553 313.958 2.43553L313.897 2.39917Z" fill="url(#paint8_linear_223_1495)"/>
<path d="M365.656 3.87768C364.069 6.7741 363.269 9.86442 363.269 13.1608V19.3414L366.977 24.9161L363.269 30.4908V45.494C363.269 48.8388 364.069 52.0019 365.681 54.9468L366.359 56.2071H360.348C357.949 56.2071 355.901 55.3588 354.192 53.65C352.483 51.9413 351.659 49.9174 351.659 47.5179V27.1581C350.047 27.1581 349.065 27.449 348.69 28.0307C348.314 28.6003 348.12 33.0358 348.12 41.3615V47.9057C348.12 50.2083 347.308 52.1594 345.696 53.7833C344.085 55.4073 342.121 56.2071 339.819 56.2071H334.232L335.104 54.6438C336.595 51.8928 337.334 48.96 337.334 45.8455V44.4154C337.334 34.89 337.431 29.7273 337.613 28.9153C337.807 28.1276 338.316 27.2429 339.116 26.2855C339.904 25.316 341.431 24.5525 343.733 23.9829C341.2 23.7406 339.504 23.0256 338.643 21.8379C337.771 20.6381 337.347 18.2992 337.347 14.8089C337.347 11.0036 337.965 8.22837 339.189 6.48324C340.4 4.75024 341.988 3.67166 343.939 3.24749C345.878 2.83545 349.587 2.61731 355.064 2.61731H366.383L365.693 3.87768H365.668H365.656ZM351.647 10.2401C350.302 10.2401 349.381 10.4704 348.872 10.9188C348.363 11.355 348.108 12.2761 348.108 13.694V16.1663C348.108 18.1295 348.363 19.305 348.896 19.6565C349.417 20.0079 350.338 20.1776 351.647 20.1776V10.2401V10.2401Z" fill="url(#paint9_linear_223_1495)"/>
<path d="M173.196 37.1562C176.044 37.132 178.129 35.3263 179.826 33.9084C179.801 34.7082 179.777 35.4717 179.753 35.605C178.941 40.0163 176.529 42.3068 174.105 43.5187C177.208 42.3674 180.747 39.8709 181.062 34.2356C181.062 34.2356 181.098 37.1077 180.965 38.1136C180.225 43.4581 174.336 44.3912 171.585 44.6578C169.718 44.8275 168.058 44.8396 168.058 44.8396C168.034 45.3365 168.01 45.8455 167.985 46.3424C172.324 46.2454 176.638 46.2212 180.965 46.2454C185.328 46.2696 189.678 46.3545 194.029 46.4999C194.017 46.0515 193.993 45.591 193.968 45.1426C193.956 45.1062 183.982 45.6637 182.395 35.5565C182.383 35.4353 182.371 34.6113 182.358 33.7023C184.104 35.1687 186.297 37.1805 189.133 37.2411C195.423 37.3865 200.755 32.8419 201.046 26.9279C201.264 22.4681 196.55 18.481 192.55 16.2996C184.819 12.0458 181.401 0.835849 181.389 0.82373C181.389 0.835849 178.674 10.531 170.021 16.1542C166.216 18.6264 161.199 22.2257 161.368 26.6734C161.587 32.5874 166.883 37.2168 173.184 37.1562H173.172H173.196ZM184.188 9.94927C185.727 12.5791 188.018 15.5967 191.084 17.1721C194.259 18.7961 198.064 21.8258 198.113 25.4494C198.113 25.619 198.113 25.7766 198.101 25.9462C197.798 22.6014 194.296 20.4927 191.363 18.9294C188.079 17.1843 185.691 13.185 184.2 9.94927H184.188ZM173.16 17.463C169.985 19.5474 164.847 22.6135 164.956 26.4431C165.016 28.7457 165.986 30.8302 167.489 32.4177C165.343 30.7574 163.926 28.2973 163.841 25.51C163.72 21.6683 168.058 18.5901 171.342 16.4692C178.795 11.6459 181.122 3.28387 181.122 3.27175C181.122 3.27175 181.256 3.70803 181.51 4.41093C180.989 6.83471 179.014 13.5971 173.148 17.463H173.16Z" fill="url(#paint10_linear_223_1495)"/>
<defs>
<linearGradient id="paint0_linear_223_1495" x1="16.9406" y1="70.7947" x2="16.9406" y2="0.967091" gradientUnits="userSpaceOnUse">
<stop stop-color="#999999"/>
<stop offset="0.99" stop-color="#F2F2F2"/>
</linearGradient>
<linearGradient id="paint1_linear_223_1495" x1="48.1599" y1="59.3066" x2="48.1599" y2="1.02218" gradientUnits="userSpaceOnUse">
<stop stop-color="#999999"/>
<stop offset="0.99" stop-color="#F2F2F2"/>
</linearGradient>
<linearGradient id="paint2_linear_223_1495" x1="78.45" y1="59.4472" x2="78.45" y2="1.24175" gradientUnits="userSpaceOnUse">
<stop stop-color="#999999"/>
<stop offset="0.99" stop-color="#F2F2F2"/>
</linearGradient>
<linearGradient id="paint3_linear_223_1495" x1="108.815" y1="59.3061" x2="108.815" y2="1.02175" gradientUnits="userSpaceOnUse">
<stop stop-color="#999999"/>
<stop offset="0.99" stop-color="#F2F2F2"/>
</linearGradient>
<linearGradient id="paint4_linear_223_1495" x1="141.003" y1="59.4384" x2="141.003" y2="1.21721" gradientUnits="userSpaceOnUse">
<stop stop-color="#999999"/>
<stop offset="0.99" stop-color="#F2F2F2"/>
</linearGradient>
<linearGradient id="paint5_linear_223_1495" x1="218.872" y1="70.7792" x2="218.872" y2="0.967464" gradientUnits="userSpaceOnUse">
<stop stop-color="#999999"/>
<stop offset="0.99" stop-color="#F2F2F2"/>
</linearGradient>
<linearGradient id="paint6_linear_223_1495" x1="251.381" y1="60.9137" x2="251.381" y2="0.213309" gradientUnits="userSpaceOnUse">
<stop stop-color="#999999"/>
<stop offset="0.99" stop-color="#F2F2F2"/>
</linearGradient>
<linearGradient id="paint7_linear_223_1495" x1="286.864" y1="59.478" x2="286.864" y2="1.24101" gradientUnits="userSpaceOnUse">
<stop stop-color="#999999"/>
<stop offset="0.99" stop-color="#F2F2F2"/>
</linearGradient>
<linearGradient id="paint8_linear_223_1495" x1="319.308" y1="59.3061" x2="319.308" y2="1.02175" gradientUnits="userSpaceOnUse">
<stop stop-color="#999999"/>
<stop offset="0.99" stop-color="#F2F2F2"/>
</linearGradient>
<linearGradient id="paint9_linear_223_1495" x1="350.605" y1="70.7947" x2="350.605" y2="0.967091" gradientUnits="userSpaceOnUse">
<stop stop-color="#999999"/>
<stop offset="0.99" stop-color="#F2F2F2"/>
</linearGradient>
<linearGradient id="paint10_linear_223_1495" x1="181.209" y1="58.9333" x2="181.209" y2="-0.582799" gradientUnits="userSpaceOnUse">
<stop stop-color="#999999"/>
<stop offset="0.99" stop-color="#F2F2F2"/>
</linearGradient>
</defs>
</svg>
