<svg width="27" height="24" viewBox="0 0 27 24" fill="none" xmlns="http://www.w3.org/2000/svg">
<path d="M12.2477 23.4771C12.5835 23.8128 13.0349 24 13.5083 24C13.9761 24 14.4385 23.8073 14.7688 23.4771L24.6605 13.5853C26.1633 12.0826 26.989 10.0844 26.9945 7.96514C26.9945 5.84037 26.1688 3.8422 24.6661 2.33945C23.1633 0.836697 21.1706 0.0110091 19.0459 0.0110091C16.9596 0.0110091 14.9945 0.809174 13.5028 2.26239C12.0055 0.80367 10.0349 0 7.94312 0C5.82385 0 3.83119 0.825688 2.32844 2.32294C0.825688 3.82569 0 5.82385 0 7.94862C0 10.0679 0.831193 12.0661 2.33395 13.5688L12.2477 23.4771ZM3.28624 3.28073C4.53027 2.0367 6.18716 1.34862 7.94862 1.34862C9.71009 1.34862 11.3725 2.0367 12.622 3.28624L13.0294 3.69358C13.156 3.82018 13.3266 3.89174 13.5083 3.89174C13.6844 3.89174 13.8605 3.82018 13.9872 3.69358L14.3835 3.29725C15.633 2.04771 17.2899 1.35963 19.0569 1.35963C20.8183 1.35963 22.4752 2.04771 23.7193 3.29174C24.9688 4.54128 25.6514 6.19817 25.6514 7.95963C25.6514 9.7211 24.9633 11.378 23.7138 12.6275L13.8165 22.5248C13.6569 22.6844 13.3651 22.6844 13.2 22.5248L3.29174 12.6165C2.0422 11.367 1.35413 9.71009 1.35413 7.94862C1.35413 6.18716 2.0422 4.53028 3.28624 3.28073Z" fill="white"/>
</svg>
